<?xml version="1.0" standalone="no"?>
<!DOCTYPE svg PUBLIC "-//W3C//DTD SVG 20010904//EN"
 "http://www.w3.org/TR/2001/REC-SVG-20010904/DTD/svg10.dtd">
<svg version="1.0" xmlns="http://www.w3.org/2000/svg"
 width="2132.000000pt" height="2054.000000pt" viewBox="0 0 2132.000000 2054.000000"
 preserveAspectRatio="xMidYMid meet">

<g transform="translate(0.000000,2054.000000) scale(0.100000,-0.100000)"
fill="#000000" stroke="none">
<path d="M16350 18426 c-136 -36 -251 -84 -309 -129 -200 -153 -335 -338 -397
-542 -24 -79 -27 -107 -28 -235 -1 -220 34 -362 146 -589 l67 -136 -437 -435
c-808 -805 -1723 -1692 -1738 -1686 -8 3 -59 38 -114 77 -477 340 -1122 614
-1735 738 -128 25 -201 37 -410 66 -232 32 -805 30 -1080 -4 -556 -69 -1039
-212 -1520 -449 -239 -118 -547 -303 -704 -424 -13 -10 -28 -18 -33 -18 -5 0
-231 218 -502 485 -272 267 -499 485 -504 485 -6 0 -252 240 -546 533 l-536
532 68 136 c112 226 147 369 146 589 -1 128 -4 156 -28 235 -82 271 -313 532
-549 620 -169 63 -236 75 -433 75 -211 0 -287 -16 -438 -93 -116 -60 -227
-158 -299 -264 -47 -69 -137 -251 -137 -277 0 -7 -7 -33 -16 -57 -18 -53 -22
-83 -30 -221 l-7 -108 -120 0 c-187 0 -325 -46 -478 -161 -112 -85 -190 -185
-261 -335 -46 -100 -65 -165 -84 -294 -31 -214 -7 -377 83 -553 120 -239 382
-429 703 -513 92 -24 327 -24 435 1 81 18 273 78 305 95 15 8 89 -58 447 -402
235 -226 541 -522 678 -657 138 -136 293 -285 345 -331 52 -46 226 -212 386
-370 l291 -286 -30 -44 c-178 -256 -411 -729 -528 -1073 -33 -94 -35 -98 -69
-106 -19 -5 -111 -25 -205 -46 -748 -162 -1458 -374 -2055 -613 -162 -65 -351
-154 -565 -266 -313 -164 -564 -298 -579 -309 -17 -13 -13 -15 50 -26 38 -7
110 -21 159 -31 50 -10 128 -26 175 -34 97 -19 212 -41 320 -62 41 -8 120 -24
175 -34 151 -30 348 -66 465 -84 58 -10 139 -23 180 -31 41 -7 120 -20 175
-29 55 -8 144 -23 197 -31 54 -9 115 -18 135 -20 21 -3 99 -14 173 -25 319
-46 863 -110 938 -110 l42 0 0 -39 c0 -62 38 -394 59 -522 43 -254 93 -461
165 -682 49 -149 136 -379 157 -416 5 -9 29 -59 53 -111 24 -52 66 -138 95
-190 28 -52 50 -99 49 -105 -4 -16 -889 -879 -1621 -1582 -365 -352 -442 -421
-457 -413 -32 17 -224 77 -305 95 -108 25 -343 25 -435 1 -218 -57 -444 -183
-561 -313 -198 -219 -268 -455 -225 -753 19 -129 38 -194 84 -294 71 -150 149
-250 261 -335 153 -115 291 -161 478 -161 l120 0 7 -107 c8 -139 12 -169 30
-222 9 -24 16 -50 16 -57 0 -26 90 -208 137 -277 72 -106 183 -204 299 -264
151 -77 227 -93 438 -93 197 0 264 12 433 75 236 88 467 349 549 620 24 79 27
107 28 235 1 220 -34 362 -146 589 l-67 136 197 198 c398 400 1746 1717 1757
1717 4 0 55 -37 114 -83 138 -108 161 -124 277 -203 95 -64 284 -183 314 -197
8 -4 60 -32 115 -63 102 -56 270 -138 360 -177 89 -37 90 -38 54 -83 -40 -49
-154 -223 -175 -266 -8 -18 -34 -46 -57 -62 -98 -69 -701 -520 -942 -704 -38
-29 -106 -81 -149 -114 -44 -33 -105 -81 -136 -107 -32 -25 -92 -73 -136 -106
-43 -33 -119 -94 -169 -135 -50 -41 -170 -138 -266 -215 -552 -444 -972 -808
-1274 -1105 -153 -150 -217 -203 -640 -524 -258 -196 -486 -371 -506 -389 -31
-29 -190 -152 -319 -247 -119 -87 -199 -150 -205 -159 -4 -8 91 -11 319 -11
l324 0 6 -28 c8 -41 33 -252 35 -292 1 -19 8 -84 16 -143 8 -59 15 -127 15
-151 0 -23 3 -45 6 -48 5 -6 61 30 173 112 30 22 58 37 61 33 3 -5 16 -34 28
-66 12 -31 30 -81 41 -110 11 -28 25 -64 30 -79 l10 -28 98 46 c54 25 117 55
141 66 26 14 46 18 51 12 5 -5 30 -51 56 -102 26 -50 50 -92 54 -92 9 0 98 33
204 75 l69 28 41 -24 c23 -12 72 -42 110 -66 37 -24 74 -43 82 -43 8 0 33 26
57 58 76 104 73 101 121 85 179 -59 351 -112 355 -109 2 3 -1 31 -8 63 -11 57
-27 143 -56 298 -8 44 -22 114 -31 155 -9 41 -18 84 -20 95 -2 11 -17 62 -33
113 -17 51 -30 99 -30 105 1 20 326 363 500 526 91 85 165 157 165 161 0 9
210 192 570 496 625 527 953 786 1140 899 62 37 75 41 75 25 0 -19 101 -214
142 -275 48 -70 64 -88 258 -288 349 -360 708 -543 1234 -627 287 -46 851 -48
1125 -4 313 50 600 167 821 332 132 100 392 365 483 492 80 114 200 348 246
482 30 89 35 97 52 87 11 -5 183 -110 382 -233 1061 -653 1246 -761 2032
-1186 539 -291 851 -447 1325 -662 146 -66 413 -208 585 -311 275 -164 246
-139 267 -232 11 -44 22 -91 25 -105 7 -34 49 -176 84 -285 53 -167 110 -340
118 -360 19 -47 81 -246 81 -258 0 -8 6 -20 14 -26 12 -10 31 11 107 111 50
68 108 143 128 168 19 25 36 47 38 49 1 2 24 -14 50 -36 78 -63 150 -113 164
-113 12 0 85 180 105 257 6 21 10 22 98 18 50 -3 121 -7 159 -11 51 -4 67 -2
67 8 0 7 -12 77 -27 155 -15 79 -25 145 -22 147 2 2 69 -4 149 -15 185 -24
194 -24 187 -1 -3 9 -15 49 -26 87 -11 39 -36 122 -55 185 -20 62 -34 115 -32
117 2 3 95 -27 270 -87 16 -5 32 -7 35 -5 3 3 -9 31 -25 63 -17 31 -35 66 -41
77 -6 11 -17 34 -26 50 -8 17 -45 89 -82 160 -153 296 -235 458 -233 460 2 1
111 57 243 125 132 67 248 127 259 132 29 16 8 26 -120 62 -167 48 -385 113
-474 142 -153 51 -1186 362 -1225 369 -108 20 -353 89 -633 180 l-114 37 54
35 c72 47 170 144 223 223 45 67 135 249 135 274 0 7 7 33 16 57 18 53 22 83
30 222 l7 107 120 0 c187 0 325 46 478 161 112 85 190 185 261 335 46 100 65
165 84 294 31 214 7 377 -83 553 -120 239 -382 429 -703 513 -92 24 -327 24
-435 -1 -81 -18 -273 -78 -305 -95 -15 -8 -93 63 -466 421 -247 237 -451 438
-454 447 -3 10 -180 186 -395 394 -214 207 -439 425 -499 486 l-108 109 55 94
c64 109 203 385 241 479 15 36 31 74 36 85 71 149 189 546 251 841 39 190 89
564 89 675 l0 56 93 12 c50 6 148 18 217 26 240 28 466 56 560 70 52 7 147 21
210 30 116 16 257 36 385 56 39 6 120 19 180 30 158 29 1616 337 1639 347 14
6 -21 24 -145 74 -90 37 -364 149 -609 248 -245 100 -528 215 -630 255 -550
215 -1352 444 -2071 590 l-86 18 -18 56 c-87 281 -299 717 -497 1023 l-69 106
283 279 c156 154 407 398 558 543 151 145 325 315 385 377 61 62 305 299 544
527 361 346 436 414 451 406 32 -17 224 -77 305 -95 108 -25 343 -25 435 -1
218 57 444 183 561 313 198 219 268 455 225 753 -19 129 -38 194 -84 294 -71
150 -149 250 -261 335 -153 115 -291 161 -478 161 l-120 0 -7 108 c-8 138 -12
168 -30 221 -9 24 -16 50 -16 57 0 26 -90 208 -137 277 -72 106 -183 204 -299
264 -153 78 -226 93 -446 92 -156 -1 -196 -4 -268 -23z m480 -271 c152 -46
279 -157 354 -308 71 -145 84 -207 92 -464 l7 -223 201 0 c241 0 308 -9 402
-55 207 -101 328 -311 341 -591 5 -97 2 -121 -18 -189 -80 -271 -403 -495
-712 -495 -149 0 -334 53 -526 149 l-78 40 -24 -26 c-13 -14 -204 -199 -424
-411 -380 -367 -698 -677 -1505 -1466 l-355 -348 -40 47 c-221 261 -385 433
-558 585 -53 46 -97 87 -97 91 0 4 57 62 128 129 163 157 890 869 1609 1578
l562 553 -46 72 c-59 93 -157 278 -189 359 -74 189 -89 379 -40 517 37 106 86
187 154 257 124 127 225 176 452 218 52 10 256 -3 310 -19z m-11450 -100 c244
-56 422 -217 506 -456 49 -138 34 -328 -40 -517 -32 -81 -130 -267 -189 -359
l-46 -72 515 -508 c283 -279 521 -510 527 -512 10 -3 716 -691 1092 -1063 l90
-89 -75 -67 c-194 -172 -394 -382 -554 -580 -32 -40 -63 -71 -67 -70 -5 2
-221 210 -481 464 -260 253 -517 501 -570 550 -102 93 -1115 1072 -1157 1117
l-24 26 -78 -40 c-192 -96 -377 -149 -526 -149 -309 0 -632 224 -712 495 -20
68 -23 92 -18 189 13 280 134 490 341 591 94 46 161 55 402 55 l201 0 7 223
c8 257 21 319 92 464 88 179 246 297 439 327 60 9 252 -2 325 -19z m5940
-2776 c197 -22 348 -45 501 -79 585 -126 1178 -397 1669 -760 283 -210 612
-527 829 -800 112 -140 285 -389 356 -513 l27 -48 -23 6 c-20 4 -424 62 -559
80 -19 2 -84 11 -145 19 -134 18 -328 40 -535 61 -85 9 -218 22 -295 30 -145
15 -302 28 -560 45 -82 6 -215 15 -295 20 -80 5 -280 14 -445 20 -165 5 -334
12 -376 15 -136 9 -1146 6 -1429 -5 -559 -21 -1151 -57 -1400 -84 -19 -2 -87
-9 -150 -16 -286 -28 -724 -80 -810 -95 -14 -3 -47 -7 -75 -11 -112 -13 -523
-80 -559 -91 -17 -5 -15 2 13 51 159 283 460 667 717 916 122 118 287 263 359
316 22 16 60 45 85 65 69 56 251 178 395 264 521 312 1149 523 1750 590 28 3
68 8 90 12 60 9 391 18 545 15 74 -1 218 -12 320 -23z m530 -2829 c179 -6 399
-15 490 -20 91 -6 194 -13 230 -15 36 -2 108 -7 160 -10 393 -25 773 -61 1260
-120 520 -63 1174 -177 1692 -294 654 -149 1193 -311 1878 -566 64 -24 414
-166 428 -174 12 -7 -31 -17 -313 -72 -62 -12 -438 -77 -520 -89 -33 -5 -121
-19 -195 -30 -74 -11 -182 -27 -240 -35 -58 -8 -134 -19 -170 -24 -36 -5 -90
-12 -120 -16 -30 -3 -62 -8 -70 -10 -25 -7 -654 -83 -705 -86 -56 -2 -55 -4
-55 79 0 42 -9 118 -20 167 -69 311 -289 503 -643 559 -180 29 -531 68 -817
92 -30 2 -77 6 -105 9 -145 15 -449 33 -1050 65 -104 5 -352 14 -550 20 -198
5 -394 12 -436 15 -137 9 -1717 6 -2044 -5 -680 -22 -1183 -45 -1505 -70 -74
-5 -169 -12 -210 -15 -41 -3 -91 -7 -110 -10 -19 -2 -66 -7 -105 -10 -233 -20
-620 -64 -810 -94 -444 -69 -602 -123 -782 -268 -164 -133 -257 -298 -285
-507 l-12 -89 -65 6 c-145 13 -377 38 -391 42 -8 2 -40 7 -70 10 -171 19 -567
75 -785 111 -82 13 -177 29 -210 33 -61 9 -449 76 -495 86 -14 3 -90 17 -170
31 -80 14 -151 29 -158 33 -9 5 18 22 75 48 114 53 370 164 453 196 144 55
238 90 305 113 39 13 102 34 140 47 153 54 472 150 695 211 658 178 1300 312
2075 430 526 80 1232 154 1830 191 50 3 146 10 215 15 69 5 296 14 505 20 209
6 414 12 455 14 125 6 983 -3 1330 -14z m-10 -830 c505 -10 944 -25 1200 -40
96 -6 213 -12 260 -15 407 -24 1012 -70 1165 -90 22 -2 99 -12 170 -20 72 -9
141 -18 155 -20 14 -3 52 -8 85 -11 80 -9 199 -48 257 -85 88 -57 139 -128
174 -244 31 -102 19 -517 -26 -852 -118 -889 -477 -1686 -1047 -2325 -253
-284 -604 -585 -913 -782 -41 -27 -91 -59 -110 -71 -189 -123 -600 -320 -865
-414 -144 -51 -165 -58 -255 -85 -656 -194 -1269 -230 -1915 -111 -456 84
-861 217 -1283 421 -331 160 -556 298 -866 532 -108 82 -351 299 -451 403 -85
89 -222 248 -334 389 -15 19 -66 91 -113 160 -460 671 -714 1502 -721 2355 -2
197 0 225 17 270 79 202 254 326 546 385 395 80 977 143 1810 195 884 55 2050
76 3060 55z m-4899 -3485 c139 -196 292 -379 462 -552 l111 -112 -300 -293
c-164 -161 -346 -338 -404 -393 -58 -55 -396 -387 -752 -738 l-647 -639 46
-71 c59 -93 157 -278 189 -359 74 -189 89 -379 40 -517 -85 -241 -261 -399
-511 -457 -109 -26 -315 -26 -400 0 -157 47 -284 156 -359 309 -71 145 -84
207 -92 465 l-7 222 -201 0 c-241 0 -308 9 -402 55 -207 101 -328 311 -341
591 -5 97 -2 121 18 189 80 271 403 495 712 495 149 0 334 -53 526 -150 l79
-39 18 21 c11 11 141 138 289 281 422 408 1124 1089 1503 1460 190 185 349
334 352 330 4 -5 35 -48 71 -98z m8152 -332 c178 -175 435 -426 571 -558 136
-132 251 -247 255 -255 3 -8 184 -187 401 -396 217 -210 406 -393 419 -407
l24 -26 78 40 c192 96 377 149 526 149 309 0 632 -224 712 -495 20 -68 23 -92
18 -189 -13 -280 -134 -490 -341 -591 -94 -46 -161 -55 -402 -55 l-201 0 -7
-222 c-8 -258 -21 -320 -92 -465 -96 -195 -262 -309 -478 -329 -73 -6 -75 -6
-197 46 -68 29 -209 94 -314 145 l-190 92 -36 69 c-64 120 -83 195 -82 314 0
112 20 209 67 328 32 81 129 266 188 358 l46 71 -311 309 c-416 412 -1647
1637 -1647 1638 0 1 82 84 183 186 172 176 329 358 426 498 24 34 48 62 52 62
5 0 154 -143 332 -317z m-1029 -790 c99 -98 180 -181 180 -184 1 -3 240 -240
531 -526 292 -287 619 -610 727 -720 l197 -198 -67 -136 c-108 -218 -147 -370
-147 -569 0 -69 3 -142 7 -163 l7 -38 -67 37 c-37 21 -107 62 -157 92 -49 30
-105 63 -124 74 -19 11 -71 43 -115 72 -45 29 -135 88 -201 131 -189 123 -222
146 -348 233 -65 45 -120 82 -122 82 -3 0 -463 307 -690 461 -534 363 -586
409 -688 609 -35 69 -85 158 -111 199 -26 40 -46 74 -44 76 2 1 55 27 118 58
289 140 582 321 835 516 50 38 92 69 95 70 2 1 85 -79 184 -176z m-1441 -675
c50 -76 137 -233 137 -250 0 -7 -314 -111 -459 -152 -52 -14 -98 -23 -101 -19
-6 8 -115 313 -122 342 -2 10 18 20 62 33 192 56 329 100 380 121 19 9 38 13
41 11 3 -2 31 -41 62 -86z m-2996 -38 c24 0 22 -20 -6 -82 -16 -34 -48 -106
-71 -158 -23 -52 -43 -96 -45 -98 -6 -6 -365 152 -412 181 -16 10 21 71 111
183 l64 82 174 -54 c95 -30 178 -54 185 -54z m383 -94 c158 -33 262 -50 380
-63 30 -3 57 -7 59 -9 3 -3 -12 -112 -41 -287 l-11 -68 -41 5 c-23 3 -81 10
-131 16 -123 13 -430 66 -485 83 -25 8 -44 19 -42 26 2 11 144 331 146 331 1
0 76 -15 166 -34z m1888 -18 c6 -18 32 -97 60 -176 34 -97 47 -144 39 -147
-50 -16 -417 -72 -507 -77 l-45 -3 -12 70 c-6 39 -19 110 -27 159 -24 132 -30
121 77 136 50 7 153 25 227 40 180 37 177 37 188 -2z m-703 -88 c13 -44 55
-323 50 -328 -17 -18 -632 -19 -649 -2 -4 5 40 314 48 335 2 6 103 10 275 10
232 0 272 -2 276 -15z m634 -674 c119 -79 289 -191 379 -250 89 -58 162 -110
162 -115 0 -18 -406 -98 -627 -124 l-31 -3 -76 305 c-42 168 -76 312 -76 319
0 36 63 5 269 -132z m-694 115 c121 4 222 5 224 3 6 -5 151 -597 151 -616 0
-13 -9 -18 -27 -20 -16 0 -39 -2 -53 -3 -14 -2 -131 -8 -260 -15 -217 -11
-339 -10 -639 7 l-113 6 5 36 c3 20 22 124 42 231 19 107 42 233 51 280 8 46
17 87 19 90 2 3 88 2 192 -1 103 -3 287 -2 408 2z m-819 -118 c-4 -16 -13 -64
-20 -108 -30 -165 -67 -361 -72 -377 -7 -22 -3 -22 -194 1 -235 29 -383 51
-399 61 -11 6 31 38 160 123 228 150 510 327 522 327 5 0 6 -12 3 -27z m2561
-563 c-9 -136 -116 -406 -237 -600 -86 -137 -160 -228 -278 -341 -257 -247
-547 -390 -946 -466 -134 -26 -155 -27 -441 -27 -330 0 -418 10 -685 76 -521
129 -952 439 -1196 858 -61 105 -106 198 -102 211 2 5 81 63 176 129 l173 120
162 -30 c89 -16 185 -32 212 -35 28 -4 88 -13 135 -20 47 -8 114 -16 150 -19
36 -4 101 -11 145 -16 149 -19 566 -40 779 -40 210 0 607 21 741 40 39 5 93
12 120 15 241 26 775 144 1010 223 93 31 90 35 82 -78z"/>
<path d="M8605 10830 c-169 -30 -260 -59 -399 -128 -300 -146 -525 -370 -675
-668 -58 -117 -81 -180 -118 -329 -25 -102 -27 -125 -28 -315 0 -179 3 -218
23 -309 67 -298 191 -523 406 -736 136 -135 245 -212 399 -285 200 -94 349
-129 576 -137 222 -8 367 13 551 79 494 177 856 606 949 1125 43 242 16 550
-69 772 -169 439 -530 771 -975 895 -209 58 -444 71 -640 36z"/>
<path d="M12676 10835 c-548 -92 -1001 -477 -1166 -991 -57 -177 -64 -232 -65
-454 0 -229 12 -309 70 -480 121 -357 390 -666 724 -835 408 -205 893 -209
1306 -10 406 196 697 571 796 1025 32 150 33 439 0 585 -134 617 -608 1066
-1226 1161 -111 17 -334 16 -439 -1z"/>
<path d="M10710 8181 c-150 -48 -275 -149 -342 -277 -50 -94 -68 -170 -68
-279 0 -164 51 -288 164 -400 109 -109 222 -161 371 -171 364 -26 659 294 607
659 -9 63 -22 103 -57 173 -73 144 -181 239 -334 291 -86 29 -257 31 -341 4z"/>
</g>
</svg>
